# xmcd
#
# Track frame offsets:
#	150
#	16105
#	29537
#	44113
#	56788
#	70200
#	80086
#	91508
#	109170
#	121896
#	131631
#	148597
#
# Disc length: 2119 seconds
#
# Revision: 1
# Processed by: cddbd v1.5.2PL0 Copyright (c) Steve Scherf et al.
# Submitted via: EasyCDDAExtractor 12.0.1.1
#
DISCID=a708450c
DTITLE=Lillian Askeland - Contryjente
DYEAR=1998
DGENRE=Country
TTITLE0=Gi meg en kjær gammel sang
TTITLE1=Let them walk
TTITLE2=En deiig dag
TTITLE3=Contryjente
TTITLE4=Ungen vår
TTITLE5=Min røde paraply
TTITLE6=Himelens porter
TTITLE7=Blue bayou
TTITLE8=Ta fra han gitaren
TTITLE9=Ut i min hage
TTITLE10=Vinden
TTITLE11=Hva har jeg igjen
EXTD=Lillian Askeland  \nContryjente 
EXTT0=
EXTT1=
EXTT2=
EXTT3=
EXTT4=
EXTT5=
EXTT6=
EXTT7=
EXTT8=
EXTT9=
EXTT10=
EXTT11=
PLAYORDER=
